<svg width="200" height="200" viewBox="0 0 200 200" xmlns="http://www.w3.org/2000/svg">
  <!-- 芝麻图标 -->
  <defs>
    <linearGradient id="sesameGradient" x1="0%" y1="0%" x2="100%" y2="100%">
      <stop offset="0%" stop-color="#3e2723" />
      <stop offset="100%" stop-color="#1b0000" />
    </linearGradient>
  </defs>
  
  <!-- 背景圆形 -->
  <circle cx="100" cy="100" r="90" fill="#f8f9fa" stroke="#e0e0e0" stroke-width="2" />
  
  <!-- 芝麻群组 -->
  <g transform="translate(50, 60)">
    <!-- 第一行芝麻 -->
    <ellipse cx="20" cy="20" rx="8" ry="5" fill="url(#sesameGradient)" stroke="#1b0000" stroke-width="0.5" />
    <ellipse cx="40" cy="20" rx="8" ry="5" fill="url(#sesameGradient)" stroke="#1b0000" stroke-width="0.5" />
    <ellipse cx="60" cy="20" rx="8" ry="5" fill="url(#sesameGradient)" stroke="#1b0000" stroke-width="0.5" />
    <ellipse cx="80" cy="20" rx="8" ry="5" fill="url(#sesameGradient)" stroke="#1b0000" stroke-width="0.5" />
    <ellipse cx="100" cy="20" rx="8" ry="5" fill="url(#sesameGradient)" stroke="#1b0000" stroke-width="0.5" />
    
    <!-- 第二行芝麻 -->
    <ellipse cx="10" cy="35" rx="8" ry="5" fill="url(#sesameGradient)" stroke="#1b0000" stroke-width="0.5" />
    <ellipse cx="30" cy="35" rx="8" ry="5" fill="url(#sesameGradient)" stroke="#1b0000" stroke-width="0.5" />
    <ellipse cx="50" cy="35" rx="8" ry="5" fill="url(#sesameGradient)" stroke="#1b0000" stroke-width="0.5" />
    <ellipse cx="70" cy="35" rx="8" ry="5" fill="url(#sesameGradient)" stroke="#1b0000" stroke-width="0.5" />
    <ellipse cx="90" cy="35" rx="8" ry="5" fill="url(#sesameGradient)" stroke="#1b0000" stroke-width="0.5" />
    <ellipse cx="110" cy="35" rx="8" ry="5" fill="url(#sesameGradient)" stroke="#1b0000" stroke-width="0.5" />
    
    <!-- 第三行芝麻 -->
    <ellipse cx="20" cy="50" rx="8" ry="5" fill="url(#sesameGradient)" stroke="#1b0000" stroke-width="0.5" />
    <ellipse cx="40" cy="50" rx="8" ry="5" fill="url(#sesameGradient)" stroke="#1b0000" stroke-width="0.5" />
    <ellipse cx="60" cy="50" rx="8" ry="5" fill="url(#sesameGradient)" stroke="#1b0000" stroke-width="0.5" />
    <ellipse cx="80" cy="50" rx="8" ry="5" fill="url(#sesameGradient)" stroke="#1b0000" stroke-width="0.5" />
    <ellipse cx="100" cy="50" rx="8" ry="5" fill="url(#sesameGradient)" stroke="#1b0000" stroke-width="0.5" />
    
    <!-- 第四行芝麻 -->
    <ellipse cx="10" cy="65" rx="8" ry="5" fill="url(#sesameGradient)" stroke="#1b0000" stroke-width="0.5" />
    <ellipse cx="30" cy="65" rx="8" ry="5" fill="url(#sesameGradient)" stroke="#1b0000" stroke-width="0.5" />
    <ellipse cx="50" cy="65" rx="8" ry="5" fill="url(#sesameGradient)" stroke="#1b0000" stroke-width="0.5" />
    <ellipse cx="70" cy="65" rx="8" ry="5" fill="url(#sesameGradient)" stroke="#1b0000" stroke-width="0.5" />
    <ellipse cx="90" cy="65" rx="8" ry="5" fill="url(#sesameGradient)" stroke="#1b0000" stroke-width="0.5" />
    <ellipse cx="110" cy="65" rx="8" ry="5" fill="url(#sesameGradient)" stroke="#1b0000" stroke-width="0.5" />
    
    <!-- 第五行芝麻 -->
    <ellipse cx="20" cy="80" rx="8" ry="5" fill="url(#sesameGradient)" stroke="#1b0000" stroke-width="0.5" />
    <ellipse cx="40" cy="80" rx="8" ry="5" fill="url(#sesameGradient)" stroke="#1b0000" stroke-width="0.5" />
    <ellipse cx="60" cy="80" rx="8" ry="5" fill="url(#sesameGradient)" stroke="#1b0000" stroke-width="0.5" />
    <ellipse cx="80" cy="80" rx="8" ry="5" fill="url(#sesameGradient)" stroke="#1b0000" stroke-width="0.5" />
    <ellipse cx="100" cy="80" rx="8" ry="5" fill="url(#sesameGradient)" stroke="#1b0000" stroke-width="0.5" />
  </g>
  
  <!-- 芝麻油滴 -->
  <circle cx="140" cy="140" r="15" fill="rgba(255,215,0,0.6)" />
  <circle cx="150" cy="150" r="10" fill="rgba(255,215,0,0.4)" />
  <circle cx="130" cy="155" r="8" fill="rgba(255,215,0,0.3)" />
</svg>