<svg width="200" height="200" viewBox="0 0 200 200" xmlns="http://www.w3.org/2000/svg">
  <!-- 茶籽图标 -->
  <defs>
    <linearGradient id="teaSeedGradient" x1="0%" y1="0%" x2="100%" y2="100%">
      <stop offset="0%" stop-color="#8b4513" />
      <stop offset="100%" stop-color="#654321" />
    </linearGradient>
  </defs>
  
  <!-- 背景圆形 -->
  <circle cx="100" cy="100" r="90" fill="#f8f9fa" stroke="#e0e0e0" stroke-width="2" />
  
  <!-- 茶籽外壳 -->
  <circle cx="100" cy="100" r="60" fill="url(#teaSeedGradient)" stroke="#5d4037" stroke-width="2" />
  
  <!-- 茶籽纹理 -->
  <path d="M70,80 Q100,60 130,80" fill="none" stroke="#5d4037" stroke-width="1.5" />
  <path d="M70,100 Q100,80 130,100" fill="none" stroke="#5d4037" stroke-width="1.5" />
  <path d="M70,120 Q100,100 130,120" fill="none" stroke="#5d4037" stroke-width="1.5" />
  
  <!-- 茶籽高光 -->
  <circle cx="80" cy="80" r="10" fill="rgba(255,255,255,0.2)" />
  
  <!-- 茶叶 -->
  <path d="M100,40 C120,20 140,30 150,50 C160,70 150,90 140,95" fill="#4caf50" stroke="#388e3c" stroke-width="1.5" />
  <path d="M100,40 C80,20 60,30 50,50 C40,70 50,90 60,95" fill="#4caf50" stroke="#388e3c" stroke-width="1.5" />
  
  <!-- 茶叶纹理 -->
  <path d="M100,40 C110,35 120,35 130,40" fill="none" stroke="#388e3c" stroke-width="1" />
  <path d="M100,40 C90,35 80,35 70,40" fill="none" stroke="#388e3c" stroke-width="1" />
  
  <!-- 茶籽油滴 -->
  <circle cx="130" cy="140" r="15" fill="rgba(255,215,0,0.6)" />
  <circle cx="140" cy="150" r="10" fill="rgba(255,215,0,0.4)" />
  <circle cx="120" cy="155" r="8" fill="rgba(255,215,0,0.3)" />
</svg>