<svg width="200" height="200" viewBox="0 0 200 200" xmlns="http://www.w3.org/2000/svg">
  <!-- 玉米胚芽图标 -->
  <defs>
    <linearGradient id="cornGradient" x1="0%" y1="0%" x2="100%" y2="100%">
      <stop offset="0%" stop-color="#ffd700" />
      <stop offset="100%" stop-color="#f0c000" />
    </linearGradient>
    <linearGradient id="cornHuskGradient" x1="0%" y1="0%" x2="100%" y2="100%">
      <stop offset="0%" stop-color="#4caf50" />
      <stop offset="100%" stop-color="#2e7d32" />
    </linearGradient>
  </defs>
  
  <!-- 背景圆形 -->
  <circle cx="100" cy="100" r="90" fill="#f8f9fa" stroke="#e0e0e0" stroke-width="2" />
  
  <!-- 玉米叶 -->
  <path d="M50,50 C30,70 30,100 50,120" fill="none" stroke="#4caf50" stroke-width="4" />
  <path d="M60,40 C40,70 40,110 60,140" fill="none" stroke="#4caf50" stroke-width="4" />
  
  <!-- 玉米穗 -->
  <ellipse cx="110" cy="100" rx="40" ry="60" fill="url(#cornGradient)" stroke="#daa520" stroke-width="2" />
  
  <!-- 玉米粒 -->
  <g transform="translate(80, 50)">
    <!-- 第一行玉米粒 -->
    <circle cx="10" cy="10" r="5" fill="#ffd700" stroke="#daa520" stroke-width="0.5" />
    <circle cx="20" cy="10" r="5" fill="#ffd700" stroke="#daa520" stroke-width="0.5" />
    <circle cx="30" cy="10" r="5" fill="#ffd700" stroke="#daa520" stroke-width="0.5" />
    <circle cx="40" cy="10" r="5" fill="#ffd700" stroke="#daa520" stroke-width="0.5" />
    <circle cx="50" cy="10" r="5" fill="#ffd700" stroke="#daa520" stroke-width="0.5" />
    
    <!-- 第二行玉米粒 -->
    <circle cx="10" cy="20" r="5" fill="#ffd700" stroke="#daa520" stroke-width="0.5" />
    <circle cx="20" cy="20" r="5" fill="#ffd700" stroke="#daa520" stroke-width="0.5" />
    <circle cx="30" cy="20" r="5" fill="#ffd700" stroke="#daa520" stroke-width="0.5" />
    <circle cx="40" cy="20" r="5" fill="#ffd700" stroke="#daa520" stroke-width="0.5" />
    <circle cx="50" cy="20" r="5" fill="#ffd700" stroke="#daa520" stroke-width="0.5" />
    
    <!-- 第三行玉米粒 -->
    <circle cx="10" cy="30" r="5" fill="#ffd700" stroke="#daa520" stroke-width="0.5" />
    <circle cx="20" cy="30" r="5" fill="#ffd700" stroke="#daa520" stroke-width="0.5" />
    <circle cx="30" cy="30" r="5" fill="#ffd700" stroke="#daa520" stroke-width="0.5" />
    <circle cx="40" cy="30" r="5" fill="#ffd700" stroke="#daa520" stroke-width="0.5" />
    <circle cx="50" cy="30" r="5" fill="#ffd700" stroke="#daa520" stroke-width="0.5" />
    
    <!-- 第四行玉米粒 -->
    <circle cx="10" cy="40" r="5" fill="#ffd700" stroke="#daa520" stroke-width="0.5" />
    <circle cx="20" cy="40" r="5" fill="#ffd700" stroke="#daa520" stroke-width="0.5" />
    <circle cx="30" cy="40" r="5" fill="#ffd700" stroke="#daa520" stroke-width="0.5" />
    <circle cx="40" cy="40" r="5" fill="#ffd700" stroke="#daa520" stroke-width="0.5" />
    <circle cx="50" cy="40" r="5" fill="#ffd700" stroke="#daa520" stroke-width="0.5" />
    
    <!-- 第五行玉米粒 -->
    <circle cx="10" cy="50" r="5" fill="#ffd700" stroke="#daa520" stroke-width="0.5" />
    <circle cx="20" cy="50" r="5" fill="#ffd700" stroke="#daa520" stroke-width="0.5" />
    <circle cx="30" cy="50" r="5" fill="#ffd700" stroke="#daa520" stroke-width="0.5" />
    <circle cx="40" cy="50" r="5" fill="#ffd700" stroke="#daa520" stroke-width="0.5" />
    <circle cx="50" cy="50" r="5" fill="#ffd700" stroke="#daa520" stroke-width="0.5" />
    
    <!-- 第六行玉米粒 -->
    <circle cx="10" cy="60" r="5" fill="#ffd700" stroke="#daa520" stroke-width="0.5" />
    <circle cx="20" cy="60" r="5" fill="#ffd700" stroke="#daa520" stroke-width="0.5" />
    <circle cx="30" cy="60" r="5" fill="#ffd700" stroke="#daa520" stroke-width="0.5" />
    <circle cx="40" cy="60" r="5" fill="#ffd700" stroke="#daa520" stroke-width="0.5" />
    <circle cx="50" cy="60" r="5" fill="#ffd700" stroke="#daa520" stroke-width="0.5" />
    
    <!-- 第七行玉米粒 -->
    <circle cx="10" cy="70" r="5" fill="#ffd700" stroke="#daa520" stroke-width="0.5" />
    <circle cx="20" cy="70" r="5" fill="#ffd700" stroke="#daa520" stroke-width="0.5" />
    <circle cx="30" cy="70" r="5" fill="#ffd700" stroke="#daa520" stroke-width="0.5" />
    <circle cx="40" cy="70" r="5" fill="#ffd700" stroke="#daa520" stroke-width="0.5" />
    <circle cx="50" cy="70" r="5" fill="#ffd700" stroke="#daa520" stroke-width="0.5" />
    
    <!-- 第八行玉米粒 -->
    <circle cx="10" cy="80" r="5" fill="#ffd700" stroke="#daa520" stroke-width="0.5" />
    <circle cx="20" cy="80" r="5" fill="#ffd700" stroke="#daa520" stroke-width="0.5" />
    <circle cx="30" cy="80" r="5" fill="#ffd700" stroke="#daa520" stroke-width="0.5" />
    <circle cx="40" cy="80" r="5" fill="#ffd700" stroke="#daa520" stroke-width="0.5" />
    <circle cx="50" cy="80" r="5" fill="#ffd700" stroke="#daa520" stroke-width="0.5" />
  </g>
  
  <!-- 玉米胚芽 -->
  <path d="M130,120 C140,110 150,110 160,120 C170,130 170,140 160,150 C150,160 140,160 130,150 C120,140 120,130 130,120 Z" 
        fill="#f0e68c" stroke="#daa520" stroke-width="1.5" />
  
  <!-- 玉米油滴 -->
  <circle cx="150" cy="140" r="5" fill="rgba(255,215,0,0.6)" />
  <circle cx="155" cy="145" r="3" fill="rgba(255,215,0,0.4)" />
</svg>