<svg width="200" height="200" viewBox="0 0 200 200" xmlns="http://www.w3.org/2000/svg">
  <!-- 大豆图标 -->
  <defs>
    <linearGradient id="soybeanGradient" x1="0%" y1="0%" x2="100%" y2="100%">
      <stop offset="0%" stop-color="#f0e68c" />
      <stop offset="100%" stop-color="#daa520" />
    </linearGradient>
  </defs>
  
  <!-- 背景圆形 -->
  <circle cx="100" cy="100" r="90" fill="#f8f9fa" stroke="#e0e0e0" stroke-width="2" />
  
  <!-- 大豆豆荚 -->
  <path d="M60,70 C40,90 40,140 70,160 C100,180 140,160 150,130 C160,100 150,70 130,60 C110,50 80,50 60,70 Z" 
        fill="url(#soybeanGradient)" stroke="#8b7355" stroke-width="2" />
  
  <!-- 大豆纹理 -->
  <path d="M70,80 C80,75 90,75 100,80 C110,85 120,85 130,80" fill="none" stroke="#8b7355" stroke-width="1.5" />
  <path d="M65,100 C80,95 95,95 110,100 C125,105 140,105 145,100" fill="none" stroke="#8b7355" stroke-width="1.5" />
  <path d="M65,120 C80,115 95,115 110,120 C125,125 140,125 145,120" fill="none" stroke="#8b7355" stroke-width="1.5" />
  <path d="M70,140 C85,135 100,135 115,140 C130,145 140,140 140,135" fill="none" stroke="#8b7355" stroke-width="1.5" />
  
  <!-- 大豆豆粒 -->
  <circle cx="80" cy="90" r="8" fill="#f5deb3" stroke="#8b7355" stroke-width="1" />
  <circle cx="100" cy="95" r="8" fill="#f5deb3" stroke="#8b7355" stroke-width="1" />
  <circle cx="120" cy="90" r="8" fill="#f5deb3" stroke="#8b7355" stroke-width="1" />
  
  <circle cx="75" cy="115" r="8" fill="#f5deb3" stroke="#8b7355" stroke-width="1" />
  <circle cx="95" cy="120" r="8" fill="#f5deb3" stroke="#8b7355" stroke-width="1" />
  <circle cx="115" cy="115" r="8" fill="#f5deb3" stroke="#8b7355" stroke-width="1" />
  
  <circle cx="85" cy="140" r="8" fill="#f5deb3" stroke="#8b7355" stroke-width="1" />
  <circle cx="105" cy="145" r="8" fill="#f5deb3" stroke="#8b7355" stroke-width="1" />
  <circle cx="125" cy="140" r="8" fill="#f5deb3" stroke="#8b7355" stroke-width="1" />
</svg>